<mxfile host="app.diagrams.net" modified="2023-04-22T04:09:16.045Z" agent="Mozilla/5.0 (Windows NT 10.0; Win64; x64) AppleWebKit/537.36 (KHTML, like Gecko) Chrome/112.0.0.0 Safari/537.36" etag="C0LL59LtmVxJPidUj5Z7" version="21.2.1" type="device">
  <diagram name="Architecture" id="VMXxcs3HFQC_2j8NE6Rm">
    <mxGraphModel dx="1434" dy="699" grid="1" gridSize="10" guides="1" tooltips="1" connect="1" arrows="1" fold="1" page="1" pageScale="1" pageWidth="827" pageHeight="1169" math="0" shadow="0">
      <root>
        <mxCell id="0" />
        <mxCell id="1" parent="0" />
        <mxCell id="L-0jNVmp4oRylXqOl8_p-29" value="&lt;b&gt;&lt;font&gt;SERVICE IMPLEMENTATIONS&lt;/font&gt;&lt;/b&gt;" style="whiteSpace=wrap;html=1;verticalAlign=top;dashed=1;dashPattern=8 8;strokeColor=#004C99;fontColor=#004C99;" parent="1" vertex="1">
          <mxGeometry x="440" y="20" width="380" height="620" as="geometry" />
        </mxCell>
        <mxCell id="L-0jNVmp4oRylXqOl8_p-28" value="&lt;b&gt;&lt;font&gt;ORCHESTRATION LAYER&lt;/font&gt;&lt;/b&gt;" style="whiteSpace=wrap;html=1;verticalAlign=top;dashed=1;dashPattern=8 8;strokeColor=#004C99;fontColor=#004C99;" parent="1" vertex="1">
          <mxGeometry x="210" y="20" width="190" height="620" as="geometry" />
        </mxCell>
        <mxCell id="L-0jNVmp4oRylXqOl8_p-27" value="&lt;b&gt;&lt;font&gt;USER INTERFACES&lt;/font&gt;&lt;/b&gt;" style="whiteSpace=wrap;html=1;verticalAlign=top;dashed=1;dashPattern=8 8;strokeColor=#004C99;fontColor=#004C99;" parent="1" vertex="1">
          <mxGeometry x="10" y="20" width="160" height="620" as="geometry" />
        </mxCell>
        <mxCell id="L-0jNVmp4oRylXqOl8_p-17" style="edgeStyle=orthogonalEdgeStyle;rounded=0;orthogonalLoop=1;jettySize=auto;html=1;exitX=0.5;exitY=0;exitDx=0;exitDy=0;entryX=0;entryY=0.5;entryDx=0;entryDy=0;" parent="1" source="L-0jNVmp4oRylXqOl8_p-16" target="L-0jNVmp4oRylXqOl8_p-1" edge="1">
          <mxGeometry relative="1" as="geometry" />
        </mxCell>
        <mxCell id="L-0jNVmp4oRylXqOl8_p-18" style="edgeStyle=none;rounded=0;orthogonalLoop=1;jettySize=auto;html=1;exitX=1;exitY=0.5;exitDx=0;exitDy=0;entryX=0;entryY=0.5;entryDx=0;entryDy=0;" parent="1" source="L-0jNVmp4oRylXqOl8_p-16" target="L-0jNVmp4oRylXqOl8_p-2" edge="1">
          <mxGeometry relative="1" as="geometry" />
        </mxCell>
        <mxCell id="mymrszyT0AOSkeR4WbS3-7" style="rounded=0;orthogonalLoop=1;jettySize=auto;html=1;exitX=0.5;exitY=1;exitDx=0;exitDy=0;entryX=0;entryY=0.5;entryDx=0;entryDy=0;edgeStyle=orthogonalEdgeStyle;" parent="1" source="L-0jNVmp4oRylXqOl8_p-16" target="mymrszyT0AOSkeR4WbS3-4" edge="1">
          <mxGeometry relative="1" as="geometry" />
        </mxCell>
        <mxCell id="L-0jNVmp4oRylXqOl8_p-16" value="First Year Persistence AI" style="whiteSpace=wrap;html=1;aspect=fixed;verticalAlign=bottom;" parent="1" vertex="1">
          <mxGeometry x="40" y="285" width="110" height="110" as="geometry" />
        </mxCell>
        <mxCell id="L-0jNVmp4oRylXqOl8_p-19" style="edgeStyle=none;rounded=0;orthogonalLoop=1;jettySize=auto;html=1;exitX=1;exitY=0.5;exitDx=0;exitDy=0;entryX=0;entryY=0.5;entryDx=0;entryDy=0;" parent="1" source="L-0jNVmp4oRylXqOl8_p-1" target="L-0jNVmp4oRylXqOl8_p-11" edge="1">
          <mxGeometry relative="1" as="geometry" />
        </mxCell>
        <mxCell id="L-0jNVmp4oRylXqOl8_p-1" value="Predict Endpoint" style="rounded=0;whiteSpace=wrap;html=1;" parent="1" vertex="1">
          <mxGeometry x="240" y="110" width="120" height="60" as="geometry" />
        </mxCell>
        <mxCell id="L-0jNVmp4oRylXqOl8_p-20" style="edgeStyle=none;rounded=0;orthogonalLoop=1;jettySize=auto;html=1;exitX=1;exitY=0.5;exitDx=0;exitDy=0;entryX=0;entryY=0.5;entryDx=0;entryDy=0;" parent="1" source="L-0jNVmp4oRylXqOl8_p-2" target="L-0jNVmp4oRylXqOl8_p-4" edge="1">
          <mxGeometry relative="1" as="geometry" />
        </mxCell>
        <mxCell id="L-0jNVmp4oRylXqOl8_p-21" style="edgeStyle=none;rounded=0;orthogonalLoop=1;jettySize=auto;html=1;exitX=1;exitY=0.5;exitDx=0;exitDy=0;entryX=0;entryY=0.5;entryDx=0;entryDy=0;" parent="1" source="L-0jNVmp4oRylXqOl8_p-2" target="L-0jNVmp4oRylXqOl8_p-3" edge="1">
          <mxGeometry relative="1" as="geometry" />
        </mxCell>
        <mxCell id="L-0jNVmp4oRylXqOl8_p-2" value="Summary Endpoint" style="rounded=0;whiteSpace=wrap;html=1;" parent="1" vertex="1">
          <mxGeometry x="245" y="310" width="120" height="60" as="geometry" />
        </mxCell>
        <mxCell id="L-0jNVmp4oRylXqOl8_p-24" style="edgeStyle=none;rounded=0;orthogonalLoop=1;jettySize=auto;html=1;exitX=1;exitY=0.5;exitDx=0;exitDy=0;" parent="1" source="L-0jNVmp4oRylXqOl8_p-3" target="L-0jNVmp4oRylXqOl8_p-7" edge="1">
          <mxGeometry relative="1" as="geometry" />
        </mxCell>
        <mxCell id="L-0jNVmp4oRylXqOl8_p-3" value="Textract Service" style="rounded=0;whiteSpace=wrap;html=1;" parent="1" vertex="1">
          <mxGeometry x="480" y="285" width="120" height="40" as="geometry" />
        </mxCell>
        <mxCell id="L-0jNVmp4oRylXqOl8_p-25" style="edgeStyle=none;rounded=0;orthogonalLoop=1;jettySize=auto;html=1;exitX=1;exitY=0.5;exitDx=0;exitDy=0;entryX=0;entryY=0.5;entryDx=0;entryDy=0;" parent="1" source="L-0jNVmp4oRylXqOl8_p-4" target="L-0jNVmp4oRylXqOl8_p-6" edge="1">
          <mxGeometry relative="1" as="geometry" />
        </mxCell>
        <mxCell id="L-0jNVmp4oRylXqOl8_p-4" value="Model Service" style="rounded=0;whiteSpace=wrap;html=1;" parent="1" vertex="1">
          <mxGeometry x="480" y="210" width="120" height="40" as="geometry" />
        </mxCell>
        <mxCell id="L-0jNVmp4oRylXqOl8_p-23" style="edgeStyle=none;rounded=0;orthogonalLoop=1;jettySize=auto;html=1;exitX=1;exitY=0.5;exitDx=0;exitDy=0;entryX=0;entryY=0.5;entryDx=0;entryDy=0;" parent="1" source="L-0jNVmp4oRylXqOl8_p-5" target="L-0jNVmp4oRylXqOl8_p-8" edge="1">
          <mxGeometry relative="1" as="geometry" />
        </mxCell>
        <mxCell id="L-0jNVmp4oRylXqOl8_p-5" value="Comprehend Service" style="rounded=0;whiteSpace=wrap;html=1;" parent="1" vertex="1">
          <mxGeometry x="480" y="370" width="120" height="40" as="geometry" />
        </mxCell>
        <mxCell id="L-0jNVmp4oRylXqOl8_p-6" value="Summary" style="rounded=0;whiteSpace=wrap;html=1;" parent="1" vertex="1">
          <mxGeometry x="681.75" y="210" width="120" height="40" as="geometry" />
        </mxCell>
        <mxCell id="L-0jNVmp4oRylXqOl8_p-7" value="AWS Textract" style="rounded=0;whiteSpace=wrap;html=1;" parent="1" vertex="1">
          <mxGeometry x="681.75" y="285" width="120" height="40" as="geometry" />
        </mxCell>
        <mxCell id="L-0jNVmp4oRylXqOl8_p-8" value="AWS Comprehend" style="rounded=0;whiteSpace=wrap;html=1;" parent="1" vertex="1">
          <mxGeometry x="681.75" y="370" width="120" height="40" as="geometry" />
        </mxCell>
        <mxCell id="L-0jNVmp4oRylXqOl8_p-10" value="Predict" style="rounded=0;whiteSpace=wrap;html=1;" parent="1" vertex="1">
          <mxGeometry x="680" y="120" width="120" height="40" as="geometry" />
        </mxCell>
        <mxCell id="L-0jNVmp4oRylXqOl8_p-26" style="edgeStyle=none;rounded=0;orthogonalLoop=1;jettySize=auto;html=1;exitX=1;exitY=0.5;exitDx=0;exitDy=0;" parent="1" source="L-0jNVmp4oRylXqOl8_p-11" target="L-0jNVmp4oRylXqOl8_p-10" edge="1">
          <mxGeometry relative="1" as="geometry" />
        </mxCell>
        <mxCell id="L-0jNVmp4oRylXqOl8_p-11" value="Model Service" style="rounded=0;whiteSpace=wrap;html=1;" parent="1" vertex="1">
          <mxGeometry x="480" y="120" width="120" height="40" as="geometry" />
        </mxCell>
        <mxCell id="L-0jNVmp4oRylXqOl8_p-13" value="" style="sketch=0;pointerEvents=1;shadow=0;dashed=0;html=1;strokeColor=none;fillColor=#505050;labelPosition=center;verticalLabelPosition=bottom;verticalAlign=top;outlineConnect=0;align=center;shape=mxgraph.office.concepts.web_page;" parent="1" vertex="1">
          <mxGeometry x="70" y="300" width="50" height="54" as="geometry" />
        </mxCell>
        <mxCell id="L-0jNVmp4oRylXqOl8_p-30" value="HTML, Javascript" style="text;strokeColor=none;align=center;fillColor=none;html=1;verticalAlign=middle;whiteSpace=wrap;rounded=0;fontColor=#004C99;" parent="1" vertex="1">
          <mxGeometry x="51.62" y="580" width="76.75" height="50" as="geometry" />
        </mxCell>
        <mxCell id="L-0jNVmp4oRylXqOl8_p-31" value="Python" style="text;strokeColor=none;align=center;fillColor=none;html=1;verticalAlign=middle;whiteSpace=wrap;rounded=0;fontColor=#004C99;" parent="1" vertex="1">
          <mxGeometry x="220" y="600" width="76.75" height="30" as="geometry" />
        </mxCell>
        <mxCell id="L-0jNVmp4oRylXqOl8_p-34" value="Flask" style="text;strokeColor=none;align=center;fillColor=none;html=1;verticalAlign=middle;whiteSpace=wrap;rounded=0;fontColor=#004C99;" parent="1" vertex="1">
          <mxGeometry x="458.25" y="600" width="76.75" height="30" as="geometry" />
        </mxCell>
        <mxCell id="L-0jNVmp4oRylXqOl8_p-35" value="Flask-Cors" style="text;strokeColor=none;align=center;fillColor=none;html=1;verticalAlign=middle;whiteSpace=wrap;rounded=0;fontColor=#004C99;" parent="1" vertex="1">
          <mxGeometry x="545" y="600" width="76.75" height="30" as="geometry" />
        </mxCell>
        <mxCell id="L-0jNVmp4oRylXqOl8_p-38" value="sklearn" style="text;strokeColor=none;align=center;fillColor=none;html=1;verticalAlign=middle;whiteSpace=wrap;rounded=0;fontColor=#004C99;" parent="1" vertex="1">
          <mxGeometry x="638.25" y="600" width="76.75" height="30" as="geometry" />
        </mxCell>
        <mxCell id="L-0jNVmp4oRylXqOl8_p-39" value="logging" style="text;strokeColor=none;align=center;fillColor=none;html=1;verticalAlign=middle;whiteSpace=wrap;rounded=0;fontColor=#004C99;" parent="1" vertex="1">
          <mxGeometry x="725" y="600" width="76.75" height="30" as="geometry" />
        </mxCell>
        <mxCell id="mymrszyT0AOSkeR4WbS3-8" style="edgeStyle=none;rounded=0;orthogonalLoop=1;jettySize=auto;html=1;exitX=1;exitY=0.5;exitDx=0;exitDy=0;entryX=0;entryY=0.5;entryDx=0;entryDy=0;" parent="1" source="mymrszyT0AOSkeR4WbS3-4" target="mymrszyT0AOSkeR4WbS3-6" edge="1">
          <mxGeometry relative="1" as="geometry" />
        </mxCell>
        <mxCell id="mymrszyT0AOSkeR4WbS3-4" value="Scores Endpoint" style="rounded=0;whiteSpace=wrap;html=1;" parent="1" vertex="1">
          <mxGeometry x="240" y="515" width="120" height="60" as="geometry" />
        </mxCell>
        <mxCell id="mymrszyT0AOSkeR4WbS3-5" value="AWS DynamoDB" style="rounded=0;whiteSpace=wrap;html=1;" parent="1" vertex="1">
          <mxGeometry x="680" y="525" width="120" height="40" as="geometry" />
        </mxCell>
        <mxCell id="mymrszyT0AOSkeR4WbS3-9" style="edgeStyle=none;rounded=0;orthogonalLoop=1;jettySize=auto;html=1;exitX=1;exitY=0.5;exitDx=0;exitDy=0;entryX=0;entryY=0.5;entryDx=0;entryDy=0;" parent="1" source="mymrszyT0AOSkeR4WbS3-6" target="mymrszyT0AOSkeR4WbS3-5" edge="1">
          <mxGeometry relative="1" as="geometry" />
        </mxCell>
        <mxCell id="mymrszyT0AOSkeR4WbS3-6" value="DynamoDB Service" style="rounded=0;whiteSpace=wrap;html=1;" parent="1" vertex="1">
          <mxGeometry x="480" y="525" width="120" height="40" as="geometry" />
        </mxCell>
        <mxCell id="eXb3NO9eGu3KrRrhNwpy-4" style="edgeStyle=orthogonalEdgeStyle;rounded=0;orthogonalLoop=1;jettySize=auto;html=1;exitX=1;exitY=0.5;exitDx=0;exitDy=0;" parent="1" source="eXb3NO9eGu3KrRrhNwpy-2" target="eXb3NO9eGu3KrRrhNwpy-3" edge="1">
          <mxGeometry relative="1" as="geometry" />
        </mxCell>
        <mxCell id="eXb3NO9eGu3KrRrhNwpy-2" value="Medical Comprehend Service" style="rounded=0;whiteSpace=wrap;html=1;" parent="1" vertex="1">
          <mxGeometry x="480" y="440" width="120" height="40" as="geometry" />
        </mxCell>
        <mxCell id="eXb3NO9eGu3KrRrhNwpy-3" value="AWS Medical Comprehend" style="rounded=0;whiteSpace=wrap;html=1;" parent="1" vertex="1">
          <mxGeometry x="680" y="440" width="120" height="40" as="geometry" />
        </mxCell>
        <mxCell id="c1TsKyCWb7ITvuHk-P-J-1" style="edgeStyle=none;rounded=0;orthogonalLoop=1;jettySize=auto;html=1;exitX=1;exitY=0.5;exitDx=0;exitDy=0;entryX=0;entryY=0.5;entryDx=0;entryDy=0;" parent="1" source="L-0jNVmp4oRylXqOl8_p-2" target="L-0jNVmp4oRylXqOl8_p-5" edge="1">
          <mxGeometry relative="1" as="geometry">
            <mxPoint x="375" y="350" as="sourcePoint" />
            <mxPoint x="490" y="315" as="targetPoint" />
          </mxGeometry>
        </mxCell>
        <mxCell id="c1TsKyCWb7ITvuHk-P-J-2" style="edgeStyle=none;rounded=0;orthogonalLoop=1;jettySize=auto;html=1;exitX=1;exitY=0.5;exitDx=0;exitDy=0;entryX=0;entryY=0.5;entryDx=0;entryDy=0;" parent="1" source="L-0jNVmp4oRylXqOl8_p-2" target="eXb3NO9eGu3KrRrhNwpy-2" edge="1">
          <mxGeometry relative="1" as="geometry">
            <mxPoint x="375" y="350" as="sourcePoint" />
            <mxPoint x="410" y="460" as="targetPoint" />
          </mxGeometry>
        </mxCell>
        <mxCell id="c1TsKyCWb7ITvuHk-P-J-3" value="Flask" style="text;strokeColor=none;align=center;fillColor=none;html=1;verticalAlign=middle;whiteSpace=wrap;rounded=0;fontColor=#004C99;" parent="1" vertex="1">
          <mxGeometry x="296.75" y="600" width="76.75" height="30" as="geometry" />
        </mxCell>
      </root>
    </mxGraphModel>
  </diagram>
</mxfile>
